# xmcd
#
# Track frame offsets: 
#        182
#        13555
#        25282
#        35980
#        46677
#        61797
#        74162
#        85737
#        96217
#        105960
#        121975
#        137140
#        150545
#        168945
#
# Disc length: 2393 seconds
#
# Revision: 4
# Processed by: cddbd v1.5.2PL0 Copyright (c) Steve Scherf et al.
# Submitted via: ExactAudioCopyFreeDBPlugin 1.0
#
DISCID=b009570e
DTITLE=Kenny Rogers - Kenny Rogers - 28 Great Songs - CD 2
DYEAR=1993
DGENRE=Country
TTITLE0=Shine On Ruby Mountain
TTITLE1=Elvira
TTITLE2=Last Few Threats Of Love
TTITLE3=Goodtime Liberator
TTITLE4=Just Dropped In ( To See What Condition My Condition Was In)
TTITLE5=Shadow In The Corner Of Your Mind
TTITLE6=Girl Get A Hold Of Yourself
TTITLE7=Ticket To Nowhere
TTITLE8=Once Again She's All Alone
TTITLE9=The Way It Used To Be
TTITLE10=For The Good Times
TTITLE11=Sleep Comes Easy
TTITLE12=The King Of Oak Street
TTITLE13=She Even Woke Me Up To Say Goodbye
EXTD=
EXTT0=
EXTT1=
EXTT2=
EXTT3=
EXTT4=
EXTT5=
EXTT6=
EXTT7=
EXTT8=
EXTT9=
EXTT10=
EXTT11=
EXTT12=
EXTT13=
PLAYORDER=
